<?xml version="1.0" encoding="UTF-8"?>
<svg width="441.08" height="160.34" enable-background="new 0 0 441.083 160.337" viewBox="0 0 441.083 160.337" xmlns="http://www.w3.org/2000/svg">
 <g fill-rule="evenodd">
  <path d="m382.08,3.858c2.297-.697 1.192,2.007 1.439,3.36-1.56-.037-1.02-2.176-1.44-3.36z"/>
  <path d="m385.92,4.338c.898.854 1.558,3.256-.48,3.36 0-1.275-.18-2.741.48-3.36z"/>
  <path d="m389.28,6.258c.941-.232 1.546,2.201.48,2.4-1.73.459-.85-2.072-.48-2.4z"/>
  <path d="m400.32,7.218c1.256.505 1.57,1.95 1.44,3.84-.861-.061-1.013.588-1.92.48 1.1-1.56-.63-2.971.48-4.32z"/>
  <path d="m397.44,8.178c1.227.054.953,1.607.96,2.88-2.29-.064-.64-1.089-.96-2.88z"/>
  <path d="m382.56,8.658c1.768-.442.873,2.532.48,2.88-1.71-.408-.06-1.183-.48-2.88z"/>
  <path d="m385.44,9.138h1.44c.063,1.183.072,2.312-.48,2.88-.84-.442-1.06-1.501-.96-2.88z"/>
  <path d="m404.16,9.138c2.071,3.369.441,10.439.961,15.36-2-4.156-.73-11.922-.96-15.36z"/>
  <path d="m360,9.618c1.946-.186.528,2.991.96,4.32-1.95.186-.53-2.992-.96-4.32z"/>
  <path d="m356.64,10.578c1.38.587 1.969,3.505 0,3.84v-3.84z"/>
  <path d="m362.4,10.578c1.456-.016 1.196,1.684 1.44,2.88-1.72.279-1.46-1.421-1.44-2.88z"/>
  <path d="m353.28,14.898c2.27.083.738,2.928.959,4.32-1.59-.169-.75-2.767-.96-4.32z"/>
  <path d="m400.32,15.858c2.814.223 1.547,3.867 0,4.8v-4.8z"/>
  <path d="m360,16.338c1.639-.175 2.024,2.776 0,2.4-.9-.916.28-.869 0-2.4z"/>
  <path d="m356.64,16.818c2.049.191.458,4.022.96,5.76-2.05-.191-.46-4.023-.96-5.76z"/>
  <path d="m350.4,19.218c1.768-.442.873,2.532.48,2.88-1.58-.278-.69-1.813-.48-2.88z"/>
  <path d="m353.28,20.658c1.467.342 1.95,3.995 0,3.84v-3.84z"/>
  <path d="m399.36,26.898c1.771.629 2.281,2.519 2.88,4.32-1.66-.746-2.24-2.561-2.88-4.32z"/>
  <path d="m396.96 27.377c1.38 1.021 2.7 2.1 2.88 4.32-1.26-1.136-2.66-2.141-2.88-4.32z"/>
  <path d="m357.12,35.058c.773,4.646-1.214,7.41.479,12-3.25-2.227-1.15-8.279-.48-12z" fill="#fff"/>
  <path d="m342.24,40.338c1.956.778 1.33,3.047.96,4.32-1.59-.169-.75-2.767-.96-4.32z"/>
  <path d="m345.6,40.818h.96v3.84h-.96v-3.84z"/>
  <path d="m358.56,42.738c1.823.417.413,4.067 1.44,5.28-1.51-.73-.98-3.499-1.44-5.28z" fill="#fff"/>
  <path d="m431.04,43.218c.427.212.858.421.96.96 .935,8.968.479,20.332.479,31.2 0,10.526 1.484,21.986-1.92,29.76 .18-22.163-.671-37.33.48-60.479v-1.443z" fill="#fff"/>
  <path d="m338.4,44.658c2.5.673.951,4.927.96,6.72-1.89-.675-.57-4.552-.96-6.72z"/>
  <path d="m342.72,46.098c1.05.071 1.03,1.209.96,2.4-1.93.069-1.27-1.231-.96-2.4z"/>
  <path d="m335.52,47.058c1.913.93.6,3.992.48,5.28-1.88-1.098-.21-3.089-.48-5.28z"/>
  <path d="m433.44,50.417c2.651,6.951 2.253,23.266 2.4,34.08 .059,4.296-.447,8.613-2.4,11.04 .63-14.521.24-29.308 0-45.12z" fill="#fff"/>
  <path d="m342.24,50.897c1.427-.571 2.062,2.023.96,2.4-1.61.494-.75-1.492-.96-2.4z"/>
  <path d="m331.68,53.778c1.845-.119.917,4.123.48,4.8-1.1-.666-.18-3.341-.48-4.8z"/>
  <path d="m146.88,54.738c.775-.135.826.454 1.44.48-1.007,7.785.464,13.692 0,22.56-2.81-5.354-.85-15.467-1.44-23.04z" fill="#fff"/>
  <path d="m335.52,55.698c1.795-.391.889,2.959.48,3.36-.98-.916-.96-2.084-.48-3.36z"/>
  <path d="m142.08,56.178v1.92c-1.85.378-1.85-2.299 0-1.92z"/>
  <path d="m149.28,56.178c1.542,8.181 1.626,14.737.96,23.04-1.53-5.787-1.16-18.213-.96-23.04z" fill="#fff"/>
  <path d="m244.8,57.138c-.207,1.073-2.365.194-3.359.48 .01-1.395 2.71-1.135 3.36-.48z"/>
  <path d="m124.8,58.098c1.808.854.197,2.142.96,3.84-.838-.441-1.06-1.5-.96-2.88-.96.766-1.417,3.624-.48,4.8 .448-.352.727-.873.96-1.44 1.109,1.611.168,5.272.48,7.68-.691-.109-.167-1.433-.96-1.44-1.4,3.08.429,9.389-.96,12.48-1.362-3.17-.019-9.256-.48-14.4-.417-1.396-.719-.54-1.92-.48 .78-1.573-.108-1.835 0-3.84 .63-.576.755-.187 1.44,0v-3.84c1.2-.613 1.5.244 1.92-.48z" fill="#fff"/>
  <path d="m151.68,60.498c1.301,4.855.595,7.03.96,12.96-2.03-3.488-.7-9.681-.96-12.96z" fill="#fff"/>
  <path d="m291.36,60.498c2.389.636 7.903.219 10.56.48-1.68,1.479-8.07,1.16-10.56-.48z"/>
  <path d="m204,61.458c-12.669,1.894-32.684.999-47.04.48-.088-.408.188-.453.48-.48 14-.679 28.89.349 46.56,0z" fill="#fff"/>
  <path d="m323.04,82.578c-49.101.29-97.351,5.142-149.76,4.32-4.073-.064-16.431-.815-16.32-4.8 .07-2.533 5.298,2.497 7.2,2.88 6.546,1.316 14.151-.206 21.12-.48 29.732-1.171 67.979-1.477 95.52-2.4 13.502-.453 27.532-.097 41.28-.96 2.638-2.093 3.135-8.913 1.439-12.48-10.372-4.244-22.697-2.803-34.56-2.88-29.459-.191-78.302-.149-124.32.48 4.38-2.46 9.139-1.705 14.4-1.92 21.366-.876 47.858.01 74.4,0 14.187-.005 34.033-.044 54.239,0 5.694.013 13.645-.3 15.84,1.44 3.87,3.068 2.75,13.345-.48,16.8z" fill="#fff"/>
  <path d="m416.16,65.298c1.914-.313 1.375,1.825 1.44,3.36-1.16-.438-1.27-1.929-1.44-3.36z"/>
  <path d="m418.56,66.738c2.225-.305 1.216,2.624 1.44,4.32-1.75-.168-.74-3.097-1.44-4.32z"/>
  <path d="m436.32,66.738c1.548,4.961.371,10.917.48,16.32-1.17-3.668-.26-12.141-.48-16.32z" fill="#fff"/>
  <path d="m145.44,67.218c1.11,1.77.167,5.593.479,8.16-1.65-1.82-1.34-6.31-.48-8.16z" fill="#fff"/>
  <path d="m342.24,67.218c.991,1.755.131,3.083 0,4.8-.94-.666-.59-4.074 0-4.8z" fill="#fff"/>
  <path d="m5.76,68.178c1.049.07 1.031,1.209.96,2.4-.996.284-1.636.924-1.92,1.92-1.16-1.038 1.011-2.803.96-4.32z" fill="#fff"/>
  <path d="m130.56,68.658c.878,1.38.685,5.789 0,7.2-.92-2.48.14-4.159 0-7.2z" fill="#fff"/>
  <path d="m417.12,70.098c1.294-.059 1.714,4.943 0,4.8v-4.8z"/>
  <path d="m117.12 72.018c-36.453 1.896-67.858 2.02-106.08 2.4 30.839-2.578 74.972-1.927 106.08-2.4z"/>
  <path d="m3.84,72.978c1.13.701-.023,3.139-.48,3.84-1.708.255-.093-3.3.48-3.84z" fill="#fff"/>
  <path d="m132.48,72.978c.664.234 1.165,4.327-.48,3.84-.21-1.651.19-2.691.48-3.84z" fill="#fff"/>
  <path d="m419.52,73.458c1.09.511.183,3.018.48,4.32-2.62.041-.79-3.1-.48-4.32z"/>
  <path d="m251.52,74.897c-16.196,1.018-22.669.753-38.879.96 11.36-2.045 30.09-.605 38.88-.96z" fill="#fff"/>
  <path d="m261.6,74.417c-.616,1.896-8.821.946-8.64.48 2.02-1.019 5.85-.232 8.64-.48z" fill="#fff"/>
  <path d="m263.04,74.897c1.136-1.104 4.308-.172 6.24-.48-.25,1.87-5.2.932-6.24.48z" fill="#fff"/>
  <path d="m275.04,75.377c-.854-.896-1.22.39-2.88,0-.29-1.097 3.32-1.744 2.88,0z" fill="#fff"/>
  <path d="m341.28,74.417c1.893-.293.564,2.636.96,3.84-.76-.84-.64-2.557-.96-3.84z" fill="#fff"/>
  <path d="m211.68,74.897c-14.326,2.262-27.506.753-42.72,1.44 17.16-2.488 31.37-.16 42.72-1.44z" fill="#fff"/>
  <path d="m144.96,75.857c1.988-.068.5,3.34.96,4.8-.73-1.192-.93-2.913-.96-4.8z" fill="#fff"/>
  <path d="m184.8,77.778c-.207,1.073-2.366.194-3.36.48 .39-1.012 2.53-1.317 3.36-.48z" fill="#fff"/>
  <path d="m168.96,78.258c3.045-1.116 8.157-.164 12-.48-3.04,1.115-8.16.163-12,.48z" fill="#fff"/>
  <path d="m170.4,80.658c47.808-2.072 87.171-2.219 133.44-2.88 7.016-.307 7.173.735.48.48-43,1.271-92.82,2.449-133.92,2.4z" fill="#fff"/>
  <path d="m328.32,78.258c1.117,4.003.163,10.078.48,14.879-3.61-2.599-2.29-10.964-.48-14.879z" fill="#fff"/>
  <path d="m115.68,80.178c-5.874.211-15.254,3.104-20.64.96 1.579.628 6.521-.41 8.64-.48 3.75-.125 7.18-.851 12-.48z" fill="#fff"/>
  <path d="m251.04 81.138c-7 1.568-3.29-1.122 0 0z" fill="#fff"/>
  <path d="m262.08,80.658c-1.131,1.448-3.178.378-6.72.96 .68-1.886 4.55-.568 6.72-.96z" fill="#fff"/>
  <path d="m265.92,81.138c.207-1.073 2.365-.194 3.36-.48-.64,1.258-2.13.916-3.36.48z" fill="#fff"/>
  <path d="m34.08,82.098h-7.2c1.122-.797 6.375-2.048 7.2,0z" fill="#fff"/>
  <path d="m37.44,81.618c.207-1.073 2.366-.194 3.36-.48-.67.734-2.485,1.363-3.36.48z" fill="#fff"/>
  <path d="m47.04,81.618c1.136-1.104 4.308-.172 6.24-.48h6.24c-3.205,1.115-8.477.163-12.48.48z" fill="#fff"/>
  <path d="m245.28 81.138c-23.406 2.061-52.957 1.865-74.4 1.92 25.42-1.913 47.85-1.583 74.4-1.92z" fill="#fff"/>
  <path d="m324.48,83.538c1.387.395 1.765,4.288.96,5.28-1.93-.413-2.51-4.172-.96-5.28z" fill="#fff"/>
  <path d="m117.6,84.498c-14.417,1.43-28.859,2.03-40.8.48 16.493.022 26.55-.125 40.8-.48z" fill="#fff"/>
  <path d="m120.48,84.498c.493,1.613-1.493.747-2.4.96-.49-1.613 1.49-.748 2.4-.96z" fill="#fff"/>
  <path d="m421.44,84.498c.559-.078.854.106.96.48 .493,7.937-.717,14.21-.479,22.079 .166,5.514 2.773,13.958-1.92,16.801 1.6-14.17-2.31-29.207 1.44-39.362z" fill="#fff"/>
  <path d="m76.32,85.458c-18.189.904-28.134,1.217-43.68.48 17.153-.931 30.167-1.113 43.68-.48z" fill="#fff"/>
  <path d="m27.84,85.458c-1.202,1.998-5.908.491-8.64.96 1.882-2.358 6.112.214 8.64-.96z" fill="#fff"/>
  <path d="m31.68,85.458c.493,1.613-1.493.747-2.4.96-.493-1.613 1.493-.748 2.4-.96z" fill="#fff"/>
  <path d="m350.4,89.297c-1.194-.726-2.194-1.646-2.399-3.359 1.62.302 2.21,1.63 2.4,3.359z"/>
  <path d="m136.32,87.858c1.203,1.196.908,3.892 1.44,5.76-2.54.143-1.03-3.771-1.44-5.76z" fill="#fff"/>
  <path d="m93.6,88.337c3.103.824.96,5.978.96,7.68 0,20.914 1.496,41.832 0,60-3.018-1.096-1.452-5.629-1.44-8.64 .073-18.157-1.042-42.085-.48-57.6v-1.44l.96-.003z" fill="#fff"/>
  <path d="m96,88.337h1.44c2.005,17.569.442,43.788 1.44,59.521 .169,2.673.973,6.87-.96,8.159-2.328-.042-1.403-3.575-1.44-4.8-.589-19.406-.018-42.995 0-61.439-.563-.081-.405-.878-.48-1.444z" fill="#fff"/>
  <path d="m99.36,88.337h.96c2.056,2.319.935,6.146.96,9.12 .152,17.673.9,36.059 0,58.56-1.761-1.879-1.483-4.449-1.44-8.159 .219-18.691-.277-40.502-.48-58.08v-1.443z" fill="#fff"/>
  <path d="m105.6,88.818c1.77-1.11 5.593-.168 8.16-.48-1.77,1.11-5.59.166-8.16.48z" fill="#fff"/>
  <path d="m59.52,88.818c.775-.136.826.453 1.44.479 .067,3.658-.593,4.099-.48,8.16-1.472-1.519-1.864-6.303-.96-8.639z" fill="#fff"/>
  <path d="m14.88,89.297c-.563,2.74-3.369.494-5.76.96 1.186-1.671 2.933-.483 5.76-.96z" fill="#fff"/>
  <path d="m27.36,89.297c-1.731,1.399-9.79,1.248-11.52.48 2.94-1.06 7.796-.203 11.52-.48z" fill="#fff"/>
  <path d="m123.36,89.778c1.729.349.312,1.496.96,3.359-1.82.385-.61-2.269-.96-3.359z" fill="#fff"/>
  <path d="m145.44,90.738c.129-.359 2.469,6.412-.48,6.24-.28-2.52.85-3.635.48-6.24z" fill="#fff"/>
  <path d="m138.72,90.738c1.229.53.942,2.577.96,4.319-2.64-.698-.6-1.942-.96-4.319z" fill="#fff"/>
  <path d="m150.24,91.217c1.163,1.42.722,3.167 0,4.8-1.33-1.057.07-3.42 0-4.8z" fill="#fff"/>
  <path d="m417.6,91.217c1.537,4.335.921,20.271 1.44,29.761 .221,4.036.937,6.512-2.881,7.199 2.33-9.331-2.107-23.771-.479-33.12 .26-1.481 1.82-2.518 1.92-3.843z" fill="#fff"/>
  <path d="m143.04,91.698c1.673.247.704,3.136.96,4.8-2.73-.068-.24-2.55-.96-4.8z" fill="#fff"/>
  <path d="m147.84,91.698c1.112,1.471 1,2.89.48,4.319-.96-1.428-.68-2.67-.48-4.319z" fill="#fff"/>
  <path d="m141.12,92.177c1.375.065-.415,3.295.96,3.36-1.6,1.71-1.75-2.377-.96-3.36z" fill="#fff"/>
  <path d="m414.24,95.057c.559-.077.854.106.961.48 .181,4.656-.883,9.756-.961,15.84-.086,6.753 3.345,15.395-.96,20.64-.799-12.855.21-21.352-.96-35.039 1-.287 1.64-.927 1.92-1.924z" fill="#fff"/>
  <path d="m410.4,98.417c.559-.078.854.106.96.48 .675,5.358-.534,10.915-.479,16.319 .074,7.446 3.24,15.397-1.44,19.2-.747-13.439.533-25.353-.479-35.04 .82.019 1.24-.359 1.44-.963z" fill="#fff"/>
  <path d="m360,108.98c.966,1.434 1.003,3.796 1.439,5.76-1.23-1.17-1.27-3.53-1.44-5.76z" fill="#fff"/>
  <path d="m39.36,111.86c1.768-.442.873,2.531.48,2.88-1.06-.06-.204-2.04-.48-2.88z"/>
  <path d="m42.24,112.82c1.515-.618 1.515,3.978 0,3.359v-3.36z"/>
  <path d="m401.76,113.3c1.104,1.292-.248,4.212-1.92,4.32 .29-1.79 1.02-3.15 1.92-4.32z"/>
  <path d="m403.68 113.3c1.512 2.014-1.001 4.103-1.44 5.76-1.25-1.76 1.57-3.53 1.44-5.76z"/>
  <path d="m45.6,114.26c1.353.144 1.698,5.683 0,5.76v-5.76z"/>
  <path d="m48.96,114.74c1.823,2.087 1.007,9.136.48,12-.667-4.3-1.444-7.89-.48-12z"/>
  <path d="m51.84 116.18c1.2 2.044 2.146 10.786 0 11.521v-11.52z"/>
  <path d="m54.72,116.66h1.44c-.386,6.319 1.672,11.048-.96,15.359-.251-5.03.545-11.11-.48-15.36z"/>
  <path d="m407.04,117.14c.558-.078.854.106.96.48-.829,6.713 1.911,15.577-1.44,19.2-.72-6.93-1.58-13.45.48-19.68z" fill="#fff"/>
  <path d="m58.08,119.06c2.265,3.874.988,9.864 1.44,15.841-3.093-2.67-.67-10.85-1.44-15.84z"/>
  <path d="m357.12,119.54c5.809,3.73.763,11.475 3.359,18.72-6.32-2.22-.35-13.97-3.36-18.72z" fill="#fff"/>
  <path d="m61.92,122.42c2.157,3.603.38,11.14.96,16.32-2.895-2.59-1.213-12.18-.96-16.32z"/>
  <path d="m360.96,125.3c5.055,1.327 1.52,8.941 2.88,14.4-5.63-1.08-.65-9-2.88-14.4z" fill="#fff"/>
  <path d="m64.8,125.78c3.134,1.985.642,9.598 1.44,13.92-3.134-1.99-.642-9.6-1.44-13.92z"/>
  <path d="m364.8,128.18c1.055.545 1.595,1.605 2.88,1.92-1.376,2.624.431,8.432-.96,11.04-4.14-1.33-.75-9.85-1.92-12.96z" fill="#fff"/>
  <path d="m368.64,130.58c.98.459 1.899.98 2.88,1.439-.646,3.779-.05,6.02 0,10.08-5.08.28-2.07-7.53-2.88-11.52z" fill="#fff"/>
  <path d="m372,132.98c.694-1.123 2.856.306 3.84.48-.736,3.007-.794,7.416.479,9.12 1.058-2.191.424-6.812 0-9.12 .558.403 1.287.633 2.4.479-.098,2.695.58,6.644 0,9.601-2.57-.509-4.554-.616-6.24-.96-.32-3.05.63-7.36-.48-9.6z" fill="#fff"/>
  <path d="m36.48,133.94c1.41.515 2.124,4.854 0,4.801v-4.8z"/>
  <path d="m379.68,133.94h2.88c-.314,3.046.633,7.354-.479,9.601h-.96c-2.35-1.33.08-7.44-1.44-9.6z" fill="#fff"/>
  <path d="m39.36,135.86c1.603.248 1.09,4.318.48,5.279-.623-1.23-.993-4.42-.48-5.28z"/>
  <path d="m42.72,135.86c1.47,1.673 1.231,7.269.48,9.6-.936-2.21-.423-8.08-.48-9.6z"/>
  <path d="m81.6,139.22c1.906,4.248.838,11.485.48,15.84-1.623-3.56-1.654-10.09-.48-15.84z"/>
  <path d="m396,24.018c-5.62-8.856-27.325-7.647-33.12,1.92 11.278-19.015 50.305-5.659 42.72,20.64-2.183.697-4.071,1.688-6.24,2.4 4.091-11.163-2.78-24.595-14.399-26.4-15.345-2.384-26.607,10.989-21.601,26.88-4.553-6.455-2.174-14.889 1.44-20.16 6.264-9.135 20.979-10.479 30.24-3.36-6.898-10.415-31.773-5.197-34.08,7.2 1.82-12.894 24.68-19.317 35.04-9.12zm6.24,7.2c-.599-1.801-1.109-3.691-2.88-4.32 .64,1.759 1.22,3.574 2.88,4.32zm-2.4.48c-.18-2.221-1.5-3.3-2.88-4.32 .22,2.178 1.62,3.183 2.88,4.32z" fill="#fff"/>
  <path d="m360.96,27.377c1.026.232-2.136,4.144-2.4,6.24-1.26-2.237 1.46-4.61 2.4-6.24z" fill="#fff"/>
  <path d="m403.68,49.938c7.261,2.34 10.834,8.367 14.4,14.4 .005-3.21-2.976-7.58-5.28-10.08 13.496,8.375 9.539,38.154-5.76,43.2-2.497-.224-4.021-1.419-6.24-1.92 6.345-3.927 14.329-9.831 15.359-19.68 .819-7.821-2.255-13.935-6.72-18.72 2.958-.551 4.073,4.881 6.24,6.72-1.52-7.124-7.05-10.234-12-13.92zm13.92,18.72c-.065-1.535.474-3.673-1.44-3.36 .17,1.431.28,2.922 1.44,3.36zm2.4,2.4c-.225-1.696.784-4.625-1.44-4.32 .7,1.223-.31,4.152 1.44,4.32zm-2.88,3.839c1.714.144 1.294-4.859 0-4.8v4.8zm2.88,2.881c-.298-1.303.609-3.81-.48-4.32-.31,1.22-2.14,4.361.48,4.32z" fill="#fff"/>
  <path d="m132.48,90.738c-2.651,2.657-7.863,4.123-11.04,4.8-2.162-.455-.102-4.683-.96-5.28-6.448-.113-8.516.511-15.36.48-.722,18.828 1.099,49.415-.48,69.12-27.88-.128-47.713.341-72.48.479-.732-17.731-.549-52.288-.48-69.12-7.359,1.441-18.422-.822-24.96,1.44-1.943-5.097-4.35-9.73-6.72-14.4 2.131-5.869 5.174-10.826 7.2-16.8 29.625-.86 62.841-.107 83.52-.48 6.603-.119 18.77-.954 28.32-.48 2.212.292-.284-4.125 2.4-3.36 3.302-1.228 6.683.771 8.64,2.4 4.945-3.349 11.525-8.602 19.68-6.24 3,.869 4.661,3.398 7.2,5.28 41.897.649 77.877-1.133 117.12-.48 13.435.224 27.982,2.001 40.319,0 17.457-2.832 17.538-24.993 26.4-36.96 8.037-10.853 21.175-20.587 39.36-21.12 13.423-.393 25.497,5.848 35.999,12.96 12.816,14.451 22.103,28.38 24.48,50.88 2.661,25.176-7,52.098-19.68,65.28-4.554,4.733-12.911,10.835-20.16,13.44-21.914,7.875-45.012-.95-56.16-13.92-3.876-4.51-6.573-10.425-9.12-15.84-4.516-9.603-6.783-21.423-20.159-23.04-8.078-.977-17.883.276-26.881.479-39.276.887-78.118,1.852-120.48,3.36-3.175.113-6.966-.626-10.08,0-4.62.929-6.173,4.742-13.44,4.8-4.16.032-8.25-3.214-12-7.681zm275.52-80.16c-21.377-16.263-53.436-5.375-65.76,11.52-9.61,13.173-10.055,32.635-24.48,40.8 5.098.343 9.754,1.127 10.08,6.24 2.377.617-.457-3.978 1.92-3.36-.444,6.326.416,11.042.48,15.84 .078,5.856-2.372,13.967 1.92,17.28-.418-10.749-.931-23.271 0-36.96 3.239,12.016-2.253,35.049 3.359,46.08 .662-15.59-1.317-34.312.96-48.479 .257,11.762.356,19.348 0,30.72-.196,6.286-.926,14.945 0,21.12 .23,1.534 1.532,3.129 2.4,4.32-.021-20.574-1.38-42.108.479-60.48 .817,2.953-.439,7.507.48,10.08 2.934-7.787 7.1-14.34 14.399-17.76-7.07-34.476 43.168-46.534 53.761-14.4 .571-3.451-1.521-6.618.96-8.16-.604,6.259-.113,12.036 0,17.28 .063,2.934-1.785,5.93 2.399,6.24 .014-11.834-1.506-20.788.48-34.08 .112,9.185.479,16.355.479,24.96 0,4.469-1.48,10.663 2.881,12-.664-9.638-.926-24.591 0-32.64 .838,12.718.84,22.962.959,34.08 1.289.631.958,2.882 2.881,2.88-1.321-13.022-1.114-22.618 0-33.12 1.922,11.226-1.639,31.576 3.359,39.36 .192-10.951-1.332-24.51 0-34.56 2.924,28.123-.214,65.63 1.92,91.2 .75-1.428 1.777-3.108 1.92-4.8 .688-8.125-.479-19.225-.479-30.24 0-18.927-.907-37.273.479-50.4 2.351,27.969-.616,52.445 1.44,79.68 .882-1.657 1.943-4.475 1.92-5.28-.567-19.518-.613-46.86-.96-65.28-.029-1.533.756-3.332.48-4.8-.981-5.231-5.758-10.56-8.641-14.4-3.534-4.708-7.516-8.959-12-11.52-.046.754.064,1.665-.96,1.44-.4-1.359.68-1.246.48-2.402zm-47.04,22.56c2.307-12.397 27.182-17.615 34.08-7.2-9.261-7.119-23.977-5.775-30.24,3.36-3.614,5.271-5.993,13.705-1.44,20.16-5.007-15.891 6.256-29.264 21.601-26.88 11.619,1.805 18.49,15.237 14.399,26.4 2.169-.711 4.058-1.703 6.24-2.4 7.585-26.299-31.441-39.655-42.72-20.64 5.795-9.567 27.5-10.776 33.12-1.92-10.36-10.197-33.22-3.774-35.04,9.12zm34.08-3.36c-11.463-11.117-32.277-3.099-31.681,12.96 .14,3.749 2.491,5.833 1.921,10.56-19.643,3.111-23.2,31.171-6.24,39.839 2.917,1.491 6.203.656 8.16,3.841-6.684,13.181 2.229,26.639 13.439,27.359 15.857,1.021 23.596-16.891 15.84-29.76 10.369-2.414 17.993-10.33 18.24-21.12 .279-12.2-8.893-17.642-17.76-22.08 3.11-6.454 2.25-17.109-1.92-21.602zm-36.48,3.84c.265-2.097 3.427-6.008 2.4-6.24-.94,1.629-3.66,4.002-2.4,6.24zm-.96,13.44c-1.693-4.59.294-7.354-.479-12-.67,3.721-2.77,9.773.48,12zm2.4.96c-1.027-1.213.383-4.863-1.44-5.28 .46,1.781-.07,4.55 1.44,5.28zm71.04-3.36c-1.151,23.149-.301,38.316-.48,60.479 3.404-7.773 1.92-19.233 1.92-29.76 0-10.868.455-22.231-.479-31.2-.102-.539-.533-.748-.96-.96v1.438zm-15.36,19.199c-2.167-1.838-3.282-7.271-6.24-6.72 4.465,4.785 7.539,10.899 6.72,18.72-1.03,9.849-9.015,15.753-15.359,19.68 2.219.501 3.743,1.696 6.24,1.92 15.299-5.046 19.256-34.824 5.76-43.2 2.305,2.5 5.285,6.87 5.28,10.08-3.566-6.033-7.14-12.06-14.4-14.4 4.95,3.687 10.48,6.797 12,13.92zm17.76,31.681c1.953-2.427 2.459-6.744 2.4-11.04-.147-10.814.251-27.129-2.4-34.08 .24,15.811.63,30.598 0,45.12zm-295.68-39.36c-.083,1.358.413,3.293-.96,3.36-.055-.585-.144-1.136-.96-.96 .228,2.177.001,3.556-1.92,2.4-.005,1.275.181,2.742-.48,3.36-.847-.419-1.486-1.606-1.92,0 1.359-.079-.399,2.959.96,2.88 .666-.295.072-1.848.96-1.92 1.021,3.458-.563,9.523 1.44,12 .317-4.323-.636-9.916.48-13.44 1.068,4.692.142,11.378 1.44,15.84 1.119-2.871-.699-11.566 1.44-14.88 .538,7.057-.604,10.616.96,14.88 1.01-6.786-.73-10.291.96-15.84 1.447,2.508-.632,9.044 1.44,9.6 .313-2.567-.63-6.39.48-8.16 1.31,2.619-.689,10.743 1.44,13.92 1.72-3.801-1.419-13.094 1.44-15.84-.304,1.794-.756,2.749.96,3.36-1.001-4.738 1.854-10.44-1.92-12.48 .271,1.042 1.146,3.93 0,4.8-2.385-.415.845-3.632-.96-4.8-1.49.907-3.59,1.206-5.28,1.92zm10.56,21.6c.464-8.868-1.007-14.775 0-22.56-.614-.026-.665-.615-1.44-.48 .59,7.573-1.37,17.686 1.44,23.04zm100.32-16.8c6.028-1.491 16.651.7 20.641-1.44-21.162.417-38.934-.647-60,.48 8.9,1.334 17.393-.971 25.92,1.44-10.175.279-18.774-1.326-30.72.96 22.031.258 48.075-.217 66.24,0 19.968.238 45.029,4.546 53.76-7.2-8.799,7.521-29.459,3.181-44.64,4.32 1.142,1.388 9.273-.111 10.08,1.92-14.09-.197-29.55.286-41.28-.48zm-98.4,18.24c.666-8.303.582-14.859-.96-23.04-.2,4.827-.57,17.253.96,23.04zm-27.36-20.64v3.84c-.685-.187-.81-.576-1.44,0-.108,2.005.78,2.267 0,3.84 1.201-.06 1.502-.917 1.92.48 .461,5.144-.882,11.229.48,14.4 1.389-3.091-.44-9.4.96-12.48 .792.007.269,1.331.96,1.44-.312-2.408.629-6.069-.48-7.68-.233.567-.512,1.088-.96,1.44-.937-1.176-.48-4.034.48-4.8-.1,1.379.122,2.438.96,2.88-.763-1.698.848-2.986-.96-3.84-.42.724-.72-.133-1.92.48zm29.76,14.88c-.365-5.93.341-8.104-.96-12.96 .26,3.279-1.07,9.472.96,12.96zm4.8-12c-.292.027-.568.072-.48.48 14.356.519 34.371,1.414 47.04-.48-17.67.349-32.56-.679-46.56,0zm-37.44,1.439c-17.112,1.711-35.087,1.44-55.68,1.44-22.552,0-34.722.576-55.68.48-.172,4.442.31,8.171 0,11.52 33.082.023 80.251-1.314 111.36-.96-38.714,3.983-80.517.223-111.36,3.361 15.452.282 35.88.197 57.12,0 20.369-.189 35.492-1.083 54.72-.96-.688-5.798 1.379-13.177-1.44-15.84 .05.585.14,1.136.96.959zm203.52,2.881c-2.195-1.741-10.146-1.428-15.84-1.44-20.206-.044-40.053-.005-54.239,0-26.542.01-53.034-.876-74.4,0-5.261.216-10.02-.54-14.4,1.92 46.018-.629 94.861-.671 124.32-.48 11.862.077 24.188-1.364 34.56,2.88 1.695,3.567 1.198,10.387-1.439,12.48-13.748.863-27.778.507-41.28.96-27.54.923-65.788,1.229-95.52,2.4-6.969.274-14.574,1.797-21.12.48-1.902-.383-7.13-5.413-7.2-2.88-.11,3.985 12.248,4.736 16.32,4.8 52.409.821 100.66-4.031 149.76-4.32 3.23-3.455 4.35-13.732.48-16.8zm23.52,16.32c-.082.718.171,1.771-.48,1.92-.377-1.862-1.487-2.992-1.439-5.28 .66-.021 1.054.226 1.439.48-.187-1.253-.246-2.634-.96-3.36-.055.586-.144,1.137-.96.96-1.247-2.608.797-7.185 0-10.56-1.535,4.069-1.39,8.958-.96,13.92-.685-.115-.81-.791-1.439-.96-.386,1.665.715,1.845.479,3.36 1.553.593.367-1.553 1.92-.96-.211,2.624 3.239,4.104 1.92,6.24-.953.244-1.098-2.648-1.92-.96 2.95,5.37 7.225,9.415 12.96,12 1.188-1.373 3.853-1.269 4.8-2.881-7.9-1.859-11.72-7.8-15.36-13.919zm89.76.96c-.109-5.402 1.067-11.359-.48-16.32 .22,4.179-.69,12.652.48,16.32zm-290.88-7.681c-.312-2.567.63-6.39-.479-8.16-.86,1.851-1.17,6.341.48,8.16zm196.32-3.359c.131-1.717.991-3.044 0-4.8-.59.726-.94,4.134 0,4.8zm-337.44.48c.284-.996.924-1.636 1.92-1.92 .071-1.19.089-2.33-.96-2.4 .051,1.517-2.12,3.282-.96,4.32zm125.76,3.359c.685-1.411.878-5.82 0-7.2 .14,3.042-.92,4.721 0,7.2zm-127.2.96c.457-.701 1.61-3.139.48-3.84-.573.541-2.188,4.096-.48,3.84zm128.64,0c1.645.487 1.144-3.605.48-3.84-.29,1.15-.69,2.19-.48,3.84zm80.64-.96c16.21-.207 22.683.058 38.879-.96-8.79.355-27.52-1.085-38.88.96zm40.32-.96c-.182.466 8.023,1.416 8.64-.48-2.79.248-6.62-.539-8.64.48zm16.32-.48c-1.933.308-5.104-.624-6.24.48 1.04.452 5.99,1.39 6.24-.48zm2.88.96c1.66.39 2.026-.896 2.88,0 .44-1.744-3.17-1.097-2.88,0zm70.08,2.881c-.396-1.205.933-4.133-.96-3.84 .32,1.282.2,2.999.96,3.84zm-173.28-1.921c15.214-.687 28.395.822 42.72-1.44-11.35,1.28-25.56-1.048-42.72,1.44zm-23.04,4.321c-.46-1.46 1.028-4.868-.96-4.8 .03,1.886.23,3.607.96,4.8zm35.52-2.4c.995-.286 3.153.593 3.36-.48-.83-.837-2.97-.532-3.36.48zm-.48-.48c-3.843.316-8.955-.636-12,.48 3.84-.317 8.96.635 12-.48zm123.36.48c6.692.255 6.535-.787-.48-.48-46.269.661-85.632.808-133.44,2.88 41.1.049 90.92-1.129 133.92-2.4zm24.48,14.879c-.317-4.802.637-10.876-.48-14.879-1.81,3.915-3.13,12.28.48,14.879zm-225.12-12.479c-2.119.07-7.062,1.108-8.64.48 5.386,2.145 14.766-.749 20.64-.96-4.82-.371-8.25.355-12,.48zm147.36.48c-3.29-1.122-7,1.568 0,0zm4.32.48c3.542-.582 5.589.488 6.72-.96-2.17.392-6.04-.926-6.72.96zm13.92-.96c-.995.286-3.153-.593-3.36.48 1.23.436 2.72.778 3.36-.48zm-242.4,1.44h7.2c-.825-2.048-6.078-.797-7.2,0zm13.92-.96c-.994.286-3.153-.593-3.36.48 .875.883 2.69.254 3.36-.48zm18.72,0h-6.24c-1.932.308-5.104-.624-6.24.48 4.003-.317 9.275.635 12.48-.48zm111.36,1.92c21.444-.055 50.995.141 74.4-1.92-26.55.337-48.98.007-74.4,1.92zm179.52,16.319c.156,7.663.293,14.678 0,21.12-.212,4.682-1.327,10.779 2.4,12.96 .018-10.446-.933-22.304.96-32.16-.228,5.497.918,12.189.96,19.2 .026,4.386-2.873,12.79 1.92,15.36-1.829-5.894.395-11.75 0-17.761-.348-5.307-3.635-10.727-1.439-17.279-7.86-3.181-11.781-10.3-15.36-17.76-.025,12.682.085,22.982 0,35.04 1.21.871 1.007,3.153 2.4,3.84-.569-11.782-.888-19.01 0-32.64 1.425,6.153 1.278,17.435.96,27.36-.121,3.762-.58,8.114 2.399,9.6-.631-12.264-.623-20.771 0-31.68 .617,4.861 1.809,10.03 1.92,15.36 .165,7.838-3.687,16.879 1.92,20.159-.272-8.044-1.19-22.707.48-32.159 .03.61.62.661.48,1.436zm-24.96-10.559c.805-.992.427-4.886-.96-5.28-1.55,1.108-.97,4.867.96,5.28zm-248.64-3.84c11.941,1.55 26.382.949 40.8-.48-14.25.355-24.307.502-40.8.48zm41.28.48c.907-.213 2.893.653 2.4-.96-.91.212-2.89-.653-2.4.96zm301.92,38.402c4.693-2.843 2.086-11.287 1.92-16.801-.237-7.869.973-14.143.479-22.079-.105-.375-.401-.559-.96-.48-3.75,10.152.16,25.189-1.44,39.359zm-387.36-37.922c15.545.736 25.49.424 43.68-.48-13.513-.633-26.527-.451-43.68.48zm-13.44.479c2.732-.469 7.438,1.038 8.64-.96-2.528,1.175-6.758-1.397-8.64.96zm10.08,0c.907-.213 2.893.653 2.4-.96-.907.213-2.893-.652-2.4.96zm108.48,7.201c-.532-1.868-.237-4.563-1.44-5.76 .41,1.989-1.1,5.903 1.44,5.76zm-52.8-4.8c.909,20.025 1.458,35.603 0,51.359-1.297-14.127-.653-34.663-.96-45.6-.05-1.768 1.268-5.447-1.44-5.76-1.988,17.586 1.5,32.898-.96,46.56-1.427-14.983-.741-26.107-.96-39.84-.03-1.871 1.253-5.752-1.44-6.72-1.047,14.715 1.412,27.563-.48,42.239-2.744-12.555.381-31.701-1.92-42.239-2.035,2.254-.997,6.546-.96,10.08 .082,7.776-.211,14.209 0,20.159 .121,3.401 2.117,7.922-.96,10.561-1.065-10.308.32-22.153-.48-35.521-.079-1.322 1.322-5.591-1.92-5.279 .112,7.584.345,16.873 0,24.479-.172,3.78 1.214,8.359-.96,10.561 .405-6.772-1.045-14.396-.96-21.601 .038-3.206 2.181-13.444-.96-13.439-.4,5.898.074,16.458-.48,23.04-.312,3.716 1.479,8.228-.96,10.079-.095-8.514-.352-19.901-.48-28.8-.02-1.408 1.376-3.991-.96-4.319-2.414,7.477 1.517,22.288-1.92,28.319 .901-7.181-1.089-14.514-.96-20.64 .059-2.781 2.428-6.224-.48-7.68-2.785,1.949-.675,6.299-.48,10.08 .27,5.223-.345,11.15-.96,15.84-1.629-3.958.506-11.7-1.92-15.84-1.001,3.63.735,10.363-1.44,13.92 .194-5.469-1.005-10.988-.96-16.801 .015-1.884 2.061-5.908-.96-7.199-1.697,4.626 1.271,14.73-1.44,20.16-.526-6.674.419-14.819-1.44-20.16-2.772,4.604 1.243,13.666-1.44,17.76-.374-3.499-.649-8.768-.96-12.96-.099-1.34 1.132-4.252-.96-4.32-1.892,4.271.465,9.664-1.44,13.44-1.611-2.064 1.346-12-1.92-13.92-1.652,2.348 1.011,9.011-1.44,10.56-.643-3.357 1.472-9.473-1.44-10.56-2.357,2.71 1.163,7.43-1.92,8.16-.552-2.328 1.16-6.92-.96-7.681-2.437-.036.443,5.243-1.92,5.28-.742-1.248.791-4.131-.48-5.76-1.978-.379-.902,2.298-2.88,1.92 .732-2.173-1.842-1.038-2.4-1.92-1.804,14.568-.152,32.944 0,53.279 .036,4.847-2.213,10.426.96,14.4 .556-3.445-.891-7.417 0-9.6 2.549,1.796-1.333,9.239 2.4,9.6 .92-1.268-1.034-6.298.48-8.16 1.988,2.745-1.312,7.784 2.4,8.16 1.383-1.472-.861-4.557.48-6.72 1.966,1.826-.695,5.15 1.92,6.72 1.625-.775-.941-5.741 1.44-5.76 .574,1.825-1.37,6.17 1.44,5.76 1.269-4.666.993-11.517.96-16.8-.012-1.92-1.635-5.039.96-5.761-.158,2.633 0,7.085 0,11.521 0,3.6-1.409,10.758 1.92,11.04 .918-4.198-.988-14.088.48-20.16 1.931,5.353-.431,14.327 1.92,20.16 2.436-5.035-.848-14.8 1.44-19.2 2.368,5.619-1.47,15.386 1.92,19.2 2.424-4.422-1.381-13.822 1.44-17.76 2.105,5.357-.695,14.378 1.44,17.76 2.351-3.7-1.328-13.836 1.92-16.32-.37,1.803.377,3.345.48,5.28 .211,3.983-1.384,9.694 1.44,11.04 .412-3.443-.884-9.729.96-13.92 2.596,2.744-1.054,11.783 1.92,13.92 1.831-4.338-.99-8.373 1.92-12.48 1.073,5.793-1.716,10.492 1.92,12.48 1.972-11.324-2.002-19.122.96-29.28 1.052,5.536.319,15.997.48,23.521 .026,1.22-.416,5.97 1.44,5.279 1.117-1.041.634-6.059.48-9.6-.24-5.493-1.809-13.345.96-16.8 .351,6.318.394,12.207.48,17.76 .045,2.939-.814,7.117 1.44,8.64 1.305-6.971-1.67-17.488.96-24.96 1.4,7.138.77,13.425.48,19.2-.096,1.918-.81,5.385 1.44,6.24 2.075-4.305-.801-13.265.96-20.64 2.275,4.216 1.234,12.846.96,19.68 1.866.979 4.269,1.003 6.24,0-.825-4.331-1.14-9.4 0-13.44 2.099,4.646-1.538,11.417 2.4,13.92 1.197-19.163-2.074-47.304.48-66.72 .409,16.207.96,34.11.96,55.2 0,3.806-1.743,11.168 2.4,11.52-.053-21.198-.296-46.353-.48-67.68-2.294.562-3.103.312-6.24.478zm7.68-.481v1.44c-.562,15.515.553,39.442.48,57.6-.012,3.011-1.578,7.544 1.44,8.64 1.496-18.168 0-39.086 0-60 0-1.702 2.143-6.855-.96-7.68l-.96-.003zm3.84,1.441c-.018,18.444-.589,42.033 0,61.439 .037,1.225-.888,4.758 1.44,4.8 1.933-1.289 1.129-5.486.96-8.159-.998-15.732.565-41.951-1.44-59.521h-1.44c.075.564-.083,1.361.48,1.439zm2.88,0c.203,17.578.699,39.389.48,58.08-.043,3.71-.321,6.28 1.44,8.159 .9-22.501.152-40.887 0-58.56-.025-2.974 1.096-6.801-.96-9.12h-.96v1.438zm14.4-1.441c-2.567.312-6.39-.63-8.16.48 2.57-.313 6.39.631 8.16-.48zm-53.28,9.121c-.113-4.062.547-4.502.48-8.16-.614-.026-.665-.615-1.44-.479-.904,2.335-.512,7.119.96,8.639zm-51.36-7.201c2.391-.466 5.197,1.78 5.76-.96-2.827.477-4.574-.711-5.76.96zm6.72-.479c1.73.768 9.789.919 11.52-.48-3.724.276-8.58-.581-11.52.48zm108.48,3.359c-.648-1.863.77-3.011-.96-3.359 .35,1.09-.86,3.744.96,3.359zm20.64,3.841c2.95.172.61-6.6.48-6.24 .37,2.605-.76,3.72-.48,6.24zm-5.28-1.921c-.018-1.742.269-3.789-.96-4.319 .36,2.377-1.68,3.621.96,4.319zm10.56.96c.722-1.633 1.163-3.38 0-4.8 .07,1.38-1.33,3.743 0,4.8zm265.44-.96c-1.628,9.349 2.81,23.789.479,33.12 3.817-.688 3.102-3.163 2.881-7.199-.52-9.49.097-25.426-1.44-29.761-.1,1.323-1.66,2.36-1.92,3.838zm-271.68,1.441c-.256-1.664.713-4.553-.96-4.8 .72,2.25-1.77,4.732.96,4.8zm4.32-.481c.52-1.43.632-2.849-.48-4.319-.2,1.649-.48,2.891.48,4.319zm-6.24-.479c-1.375-.065.415-3.295-.96-3.36-.79.982-.64,5.069.96,3.36zm270.24,1.44c1.17,13.688.161,22.184.96,35.039 4.305-5.245.874-13.887.96-20.64 .078-6.084 1.142-11.184.961-15.84-.106-.374-.402-.558-.961-.48-.28.994-.92,1.634-1.92,1.918zm-24,30.242c3.021,2.118 8.226-4.152 10.561-4.319-12.42,14.87-40.303,5.301-41.28-14.4 1.532,33.763 55.352,28.205 48.96-7.68-2.404-.956-4.506-2.215-7.2-2.88 12.322,29.151-34.347,38.84-36.96,10.079 .184,12.367 10.451,20.794 23.04,19.2 5.112-.646 8.377-4.425 12-5.76-2.05,2.91-5.04,4.87-9.12,5.76zm20.64-27.843c1.013,9.688-.268,21.601.479,35.04 4.681-3.803 1.515-11.754 1.44-19.2-.055-5.404 1.154-10.961.479-16.319-.105-.374-.401-.559-.96-.48-.2.6-.62.978-1.44.956zm-46.08,8.163c-.314-1.782.463-4.94 0-5.28-.57,1.1-1.98,4.58 0,5.28zm-1.44,7.2c-.437-1.964-.474-4.326-1.439-5.76 .17,2.23.21,4.59 1.44,5.76zm9.12,10.56c-3.67-2.41-6.363-5.797-8.64-9.6 1.29,4.47 5.23,8.85 8.64,9.6zm36,11.52c3.352-3.623.611-12.487 1.44-19.2-.106-.374-.402-.559-.96-.48-2.06,6.23-1.2,12.75-.48,19.68zm-46.08,1.44c-2.597-7.245 2.449-14.989-3.359-18.72 3.01,4.75-2.96,16.5 3.36,18.72zm23.04-4.32c.675,3.006-1.515,8.876 1.44,9.601 3.785-1.583-.945-6.955 1.92-9.12 1.02,2.021.232,5.847.479,8.64h2.4c1.706-3.202-1.869-7.397 1.44-9.6 .499,3.147-.197,5.218 0,9.12 1.468.348 1.411-.828 2.88-.48 .096-3.411-1.574-7.119.479-10.08 1.418,3.043.735,5.667.48,9.601 1.156.196 1.043-.877 2.399-.48 .515-3.325-1.105-8.785.96-10.56 .437,2.347.462,5.695.48,9.6 1.405.125 1.475-1.085 2.88-.96-.03-3.941-2.189-11.832 1.44-12.479-.547,3.357-.359,7.966-.48,11.52 4.002-.531 1.411-11.243 1.439-15.359-4.5,6.06-10.96,10.16-20.64,11.04zm-19.68,5.76c-1.36-5.459 2.175-13.073-2.88-14.4 2.23,5.4-2.75,13.32 2.88,14.4zm14.4-11.52c-1.931-.435-4.017-1.955-4.8-.96 1.25.38 3.9,1.83 4.8.96zm-11.52,12.96c1.391-2.608-.416-8.416.96-11.04-1.285-.314-1.825-1.375-2.88-1.92 1.17,3.11-2.22,11.63 1.92,12.96zm4.8.96c-.05-4.061-.646-6.301 0-10.08-.98-.459-1.899-.98-2.88-1.439 .81,3.99-2.2,11.8 2.88,11.52zm.96.48c1.687.344 3.67.451 6.24.96 .58-2.957-.098-6.905 0-9.601-1.113.153-1.843-.076-2.4-.479 .424,2.308 1.058,6.929 0,9.12-1.273-1.704-1.216-6.113-.479-9.12-.983-.175-3.146-1.604-3.84-.48 1.11,2.24.16,6.55.48,9.6zm8.64.96h.96c1.112-2.247.165-6.555.479-9.601h-2.88c1.52,2.16-.91,8.27 1.44,9.6z"/>
  <path d="m362.4,96.017c-.947,1.612-3.612,1.508-4.8,2.881-5.735-2.585-10.01-6.63-12.96-12 .822-1.688.967,1.204 1.92.96 1.319-2.137-2.131-3.617-1.92-6.24-1.553-.593-.367,1.553-1.92.96 .235-1.515-.865-1.695-.479-3.36 .63.169.755.845 1.439.96-.43-4.962-.575-9.851.96-13.92 .797,3.375-1.247,7.952 0,10.56 .816.177.905-.374.96-.96 .714.727.773,2.107.96,3.36-.386-.254-.779-.501-1.439-.48-.048,2.288 1.062,3.417 1.439,5.28 .651-.148.398-1.202.48-1.92 3.64,6.119 7.46,12.06 15.36,13.919zm-14.4-10.079c.205,1.714 1.205,2.634 2.399,3.359-.19-1.729-.78-3.057-2.4-3.359z" fill="#fff"/>
  <path d="m349.92,97.938c-1.671,9.452-.753,24.115-.48,32.159-5.606-3.28-1.755-12.321-1.92-20.159-.111-5.33-1.303-10.499-1.92-15.36-.623,10.908-.631,19.416 0,31.68-2.979-1.485-2.521-5.838-2.399-9.6 .318-9.926.465-21.207-.96-27.36-.888,13.63-.569,20.857 0,32.64-1.394-.687-1.19-2.969-2.4-3.84 .085-12.058-.025-22.357 0-35.04 3.579,7.46 7.5,14.58 15.36,17.76-2.195,6.553 1.092,11.973 1.439,17.279 .395,6.011-1.829,11.867 0,17.761-4.793-2.57-1.894-10.975-1.92-15.36-.042-7.011-1.188-13.703-.96-19.2-1.893,9.856-.942,21.714-.96,32.16-3.728-2.181-2.612-8.278-2.4-12.96 .293-6.442.156-13.457 0-21.12 .14-.778-.45-.829-.48-1.442z" fill="#fff"/>
  <path d="m397.44,121.46c-3.623,1.335-6.888,5.113-12,5.76-12.589,1.594-22.856-6.833-23.04-19.2 2.613,28.761 49.282,19.072 36.96-10.079 2.694.665 4.796,1.924 7.2,2.88 6.392,35.885-47.428,41.442-48.96,7.68 .978,19.701 28.86,29.271 41.28,14.4-2.335.167-7.539,6.438-10.561,4.319 4.08-.89 7.07-2.85 9.12-5.76zm2.4-3.84c1.672-.108 3.023-3.028 1.92-4.32-.9,1.17-1.63,2.53-1.92,4.32zm2.4,1.44c.439-1.657 2.952-3.746 1.44-5.76 .13,2.23-2.69,4-1.44,5.76z" fill="#fff"/>
  <path d="m362.88,102.26c.463.34-.314,3.498 0,5.28-1.98-.7-.57-4.18 0-5.28z" fill="#fff"/>
  <path d="m361.92,115.7c2.276,3.803 4.97,7.189 8.64,9.6-3.41-.75-7.35-5.13-8.64-9.6z" fill="#fff"/>
  <path d="m373.44,127.22c.783-.995 2.869.525 4.8.96-.9.87-3.55-.58-4.8-.96z" fill="#fff"/>
  <path d="m407.52,12.978c1.024.225.914-.686.96-1.44 4.484,2.561 8.466,6.812 12,11.52 2.883,3.84 7.659,9.169 8.641,14.4 .275,1.469-.51,3.268-.48,4.8 .347,18.419.393,45.762.96,65.28 .023.806-1.038,3.623-1.92,5.28-2.057-27.235.91-51.711-1.44-79.68-1.387,13.127-.479,31.473-.479,50.4 0,11.016 1.167,22.115.479,30.24-.143,1.691-1.17,3.372-1.92,4.8-2.134-25.57 1.004-63.077-1.92-91.2-1.332,10.05.192,23.609 0,34.56-4.998-7.784-1.438-28.134-3.359-39.36-1.114,10.502-1.321,20.098 0,33.12-1.923.002-1.592-2.249-2.881-2.88-.119-11.118-.121-21.362-.959-34.08-.926,8.049-.664,23.002 0,32.64-4.361-1.337-2.881-7.531-2.881-12 0-8.604-.367-15.775-.479-24.96-1.986,13.292-.467,22.246-.48,34.08-4.185-.31-2.336-3.306-2.399-6.24-.113-5.245-.604-11.021 0-17.28-2.481,1.542-.389,4.709-.96,8.16-10.593-32.134-60.831-20.076-53.761,14.4-7.3,3.42-11.466,9.973-14.399,17.76-.92-2.573.337-7.127-.48-10.08-1.859,18.372-.5,39.906-.479,60.48-.868-1.191-2.17-2.786-2.4-4.32-.926-6.175-.196-14.834 0-21.12 .356-11.372.257-18.958 0-30.72-2.277,14.168-.298,32.89-.96,48.479-5.612-11.03-.12-34.064-3.359-46.08-.931,13.689-.418,26.211 0,36.96-4.292-3.313-1.842-11.424-1.92-17.28-.064-4.798-.925-9.514-.48-15.84-2.377-.618.457,3.977-1.92,3.36-.326-5.113-4.982-5.897-10.08-6.24 14.426-8.165 14.87-27.626 24.48-40.8 12.32-16.897 44.38-27.786 65.76-11.522 .2,1.156-.88,1.043-.48,2.4zm-24-5.76c-.247-1.353.857-4.057-1.439-3.36 .42,1.184-.12,3.323 1.44,3.36zm1.92.48c2.038-.104 1.379-2.505.48-3.36-.66.619-.48,2.085-.48,3.36zm4.32.96c1.065-.199.461-2.632-.48-2.4-.37.328-1.25,2.859.48,2.4zm10.08,2.88c.907.108 1.059-.541 1.92-.48 .13-1.89-.185-3.335-1.44-3.84-1.11,1.349.62,2.76-.48,4.32zm-1.44-.48c-.007-1.272.267-2.826-.96-2.88 .32,1.791-1.33,2.816.96,2.88zm-15.36.48c.393-.348 1.287-3.322-.48-2.88 .42,1.697-1.23,2.472.48,2.88zm3.36.48c.553-.567.544-1.697.48-2.88h-1.44c-.1,1.379.12,2.438.96,2.88zm18.72,12.48c-.52-4.921 1.11-11.991-.961-15.36 .23,3.438-1.04,11.204.96,15.36zm-44.16-10.56c-.432-1.329.986-4.506-.96-4.32 .43,1.328-.99,4.506.96,4.32zm-4.32.479c1.969-.334 1.38-3.253 0-3.84v3.84zm7.2-.959c-.244-1.196.016-2.896-1.44-2.88-.02,1.459-.28,3.159 1.44,2.88zm-9.6,5.76c-.221-1.392 1.311-4.237-.959-4.32 .21,1.553-.63,4.151.96,4.32zm46.08,1.44c1.547-.933 2.814-4.577 0-4.8v4.8zm-40.32-1.92c2.024.376 1.639-2.575 0-2.4 .28,1.531-.9,1.484 0,2.4zm-2.4,3.84c-.502-1.737 1.089-5.569-.96-5.76 .5,1.737-1.09,5.569.96,5.76zm-6.72-.48c.393-.348 1.287-3.322-.48-2.88-.21,1.067-1.1,2.602.48,2.88zm2.4,2.4c1.95.155 1.467-3.498 0-3.84v3.84zm-10.08,20.16c.37-1.273.996-3.542-.96-4.32 .21,1.553-.63,4.151.96,4.32zm2.4,0h.96v-3.84h-.96v3.84zm-6.24,6.719c-.009-1.793 1.54-6.047-.96-6.72 .39,2.169-.93,6.046.96,6.72zm4.32-2.879c.07-1.19.09-2.329-.96-2.4-.31,1.169-.97,2.469.96,2.4zm-7.68,3.839c.119-1.288 1.433-4.35-.48-5.28 .27,2.192-1.4,4.183.48,5.28zm7.2.961c1.102-.377.467-2.972-.96-2.4 .21.907-.65,2.893.96,2.4zm-11.04,5.28c.437-.677 1.364-4.918-.48-4.8 .3,1.459-.62,4.134.48,4.8zm3.84.48c.408-.401 1.314-3.751-.48-3.36-.48,1.276-.5,2.444.48,3.36z" fill="#fff"/>
  <path d="m143.04,54.258c1.805,1.167-1.425,4.385.96,4.8 1.146-.87.271-3.758 0-4.8 3.774,2.04.918,7.742 1.92,12.48-1.716-.611-1.264-1.566-.96-3.36-2.859,2.746.28,12.039-1.44,15.84-2.129-3.177-.13-11.301-1.44-13.92-1.11,1.77-.167,5.592-.48,8.16-2.072-.556.007-7.092-1.44-9.6-1.69,5.55.05,9.055-.96,15.84-1.563-4.264-.422-7.823-.96-14.88-2.139,3.313-.321,12.009-1.44,14.88-1.298-4.462-.372-11.148-1.44-15.84-1.116,3.524-.163,9.117-.48,13.44-2.003-2.477-.418-8.541-1.44-12-.888.072-.295,1.625-.96,1.92-1.359.079.399-2.959-.96-2.88 .434-1.606 1.074-.419 1.92,0 .661-.618.475-2.085.48-3.36 1.921,1.156 2.148-.223 1.92-2.4 .816-.176.905.375.96.96 1.373-.067.877-2.002.96-3.36 1.69-.714 3.79-1.013 5.28-1.92zm-.96,3.84v-1.92c-1.85-.379-1.85,2.298 0,1.92z" fill="#fff"/>
  <path d="m289.92,61.458c-.807-2.031-8.938-.532-10.08-1.92 15.181-1.139 35.841,3.201 44.64-4.32-8.73,11.746-33.792,7.438-53.76,7.2-18.165-.217-44.209.258-66.24,0 11.946-2.286 20.545-.681 30.72-.96-8.527-2.411-17.02-.106-25.92-1.44 21.066-1.127 38.838-.063 60-.48-3.989,2.14-14.612-.051-20.641,1.44 11.73.766 27.19.283 41.28.48zm12-.48c-2.656-.261-8.171.156-10.56-.48 2.49,1.64 8.88,1.959 10.56.48z" fill="#fff"/>
  <path d="m119.04,61.938c2.82,2.663.752,10.042 1.44,15.84-19.229-.124-34.352.771-54.72.96-21.24.197-41.667.282-57.12,0 30.843-3.138 72.646.622 111.36-3.361-31.108-.354-78.278.983-111.36.96 .31-3.349-.172-7.078 0-11.52 20.958.095 33.127-.48 55.68-.48 20.593,0 38.567.271 55.68-1.44-.82.177-.91-.374-.96-.959zm-108,12.479c38.222-.38 69.627-.503 106.08-2.4-31.108.474-75.241-.177-106.08,2.4z" fill="#fff"/>
  <path d="m404.16,122.9c-.028,4.116 2.562,14.828-1.439,15.359 .121-3.554-.066-8.162.48-11.52-3.63.647-1.471,8.538-1.44,12.479-1.405-.125-1.475,1.085-2.88.96-.019-3.904-.044-7.253-.48-9.6-2.065,1.774-.445,7.234-.96,10.56-1.356-.396-1.243.677-2.399.48 .255-3.934.938-6.558-.48-9.601-2.054,2.961-.384,6.669-.479,10.08-1.469-.348-1.412.828-2.88.48-.197-3.902.499-5.973 0-9.12-3.31,2.202.266,6.397-1.44,9.6h-2.4c-.247-2.793.54-6.619-.479-8.64-2.865,2.165 1.865,7.537-1.92,9.12-2.955-.725-.766-6.595-1.44-9.601 9.68-.88 16.14-4.98 20.64-11.04z" fill="#fff"/>
  <path d="m91.2,88.337c.184,21.327.427,46.481.48,67.68-4.143-.352-2.4-7.714-2.4-11.52 0-21.09-.551-38.993-.96-55.2-2.554,19.416.717,47.557-.48,66.72-3.938-2.503-.301-9.273-2.4-13.92-1.14,4.04-.825,9.109 0,13.44-1.971,1.003-4.375.979-6.24,0 .274-6.834 1.315-15.464-.96-19.68-1.761,7.375 1.115,16.335-.96,20.64-2.25-.855-1.536-4.322-1.44-6.24 .29-5.775.92-12.062-.48-19.2-2.63,7.472.345,17.989-.96,24.96-2.254-1.522-1.395-5.7-1.44-8.64-.086-5.553-.129-11.441-.48-17.76-2.769,3.455-1.2,11.307-.96,16.8 .154,3.541.637,8.559-.48,9.6-1.856.69-1.414-4.06-1.44-5.279-.161-7.523.572-17.984-.48-23.521-2.962,10.158 1.012,17.956-.96,29.28-3.636-1.988-.847-6.688-1.92-12.48-2.91,4.107-.089,8.143-1.92,12.48-2.974-2.137.676-11.176-1.92-13.92-1.844,4.19-.548,10.477-.96,13.92-2.824-1.346-1.229-7.057-1.44-11.04-.103-1.936-.85-3.478-.48-5.28-3.248,2.484.431,12.62-1.92,16.32-2.135-3.382.665-12.402-1.44-17.76-2.821,3.938.984,13.338-1.44,17.76-3.39-3.814.448-13.581-1.92-19.2-2.288,4.4.996,14.165-1.44,19.2-2.351-5.833.011-14.808-1.92-20.16-1.468,6.072.438,15.962-.48,20.16-3.329-.282-1.92-7.44-1.92-11.04 0-4.436-.158-8.888 0-11.521-2.595.722-.972,3.841-.96,5.761 .033,5.283.308,12.134-.96,16.8-2.81.41-.866-3.935-1.44-5.76-2.381.019.185,4.984-1.44,5.76-2.615-1.569.046-4.894-1.92-6.72-1.341,2.163.903,5.248-.48,6.72-3.712-.376-.412-5.415-2.4-8.16-1.514,1.862.44,6.893-.48,8.16-3.733-.36.149-7.804-2.4-9.6-.891,2.183.556,6.154 0,9.6-3.173-3.975-.924-9.554-.96-14.4-.152-20.335-1.804-38.711 0-53.279 .558.882 3.132-.253 2.4,1.92 1.978.378.902-2.299 2.88-1.92 1.271,1.629-.262,4.512.48,5.76 2.363-.037-.517-5.316 1.92-5.28 2.12.761.408,5.353.96,7.681 3.083-.73-.437-5.45 1.92-8.16 2.913,1.087.797,7.202 1.44,10.56 2.451-1.549-.212-8.212 1.44-10.56 3.266,1.92.309,11.855 1.92,13.92 1.905-3.776-.452-9.169 1.44-13.44 2.092.068.861,2.98.96,4.32 .311,4.192.586,9.461.96,12.96 2.683-4.094-1.332-13.156 1.44-17.76 1.859,5.341.914,13.486 1.44,20.16 2.711-5.43-.257-15.534 1.44-20.16 3.021,1.291.975,5.315.96,7.199-.045,5.812 1.154,11.332.96,16.801 2.175-3.557.438-10.29 1.44-13.92 2.426,4.14.291,11.882 1.92,15.84 .615-4.689 1.229-10.617.96-15.84-.195-3.781-2.305-8.131.48-10.08 2.908,1.456.539,4.898.48,7.68-.129,6.126 1.861,13.459.96,20.64 3.437-6.031-.494-20.843 1.92-28.319 2.336.328.94,2.911.96,4.319 .128,8.898.385,20.286.48,28.8 2.439-1.852.647-6.363.96-10.079 .554-6.582.08-17.142.48-23.04 3.141-.005.998,10.233.96,13.439-.085,7.204 1.365,14.828.96,21.601 2.174-2.201.788-6.78.96-10.561 .345-7.606.112-16.896 0-24.479 3.242-.312 1.841,3.957 1.92,5.279 .8,13.367-.585,25.213.48,35.521 3.077-2.639 1.081-7.159.96-10.561-.211-5.95.082-12.383 0-20.159-.037-3.534-1.075-7.826.96-10.08 2.301,10.538-.824,29.685 1.92,42.239 1.892-14.676-.567-27.524.48-42.239 2.693.968 1.41,4.849 1.44,6.72 .219,13.732-.467,24.856.96,39.84 2.46-13.661-1.027-28.974.96-46.56 2.708.312 1.39,3.992 1.44,5.76 .307,10.937-.337,31.473.96,45.6 1.458-15.757.909-31.334 0-51.359 3.137-.169 3.946.081 6.24-.484zm-51.36,26.403c.393-.349 1.288-3.322-.48-2.88 .276.84-.58,2.82.48,2.88zm2.4,1.44c1.515.618 1.515-3.978 0-3.359v3.36zm3.36,3.84c1.698-.077 1.353-5.616 0-5.76v5.76zm3.84,6.72c.527-2.864 1.343-9.913-.48-12-.964,4.11-.187,7.7.48,12zm2.4.96c2.146-.734 1.2-9.477 0-11.521v11.52zm3.36,4.32c2.632-4.312.574-9.04.96-15.359h-1.44c1.025,4.25.229,10.33.48,15.36zm4.32,2.88c-.452-5.977.825-11.967-1.44-15.841 .77,4.99-1.653,13.17 1.44,15.84zm3.36,3.84c-.58-5.181 1.197-12.718-.96-16.32-.253,4.14-1.935,13.73.96,16.32zm3.36.96c-.798-4.322 1.694-11.935-1.44-13.92 .798,4.32-1.694,11.93 1.44,13.92zm-29.76-.96c2.124.053 1.41-4.286 0-4.801v4.8zm3.36,2.4c.61-.961 1.123-5.031-.48-5.279-.513.86-.143,4.05.48,5.28zm3.36,4.32c.751-2.331.99-7.927-.48-9.6 .057,1.52-.456,7.39.48,9.6zm38.88,9.6c.358-4.354 1.426-11.592-.48-15.84-1.174,5.75-1.143,12.28.48,15.84z" fill="#fff"/>
 </g>
</svg>
