<?xml version="1.0" standalone="no"?>
<!DOCTYPE svg PUBLIC "-//W3C//DTD SVG 20010904//EN"
 "http://www.w3.org/TR/2001/REC-SVG-20010904/DTD/svg10.dtd">
<svg version="1.0" xmlns="http://www.w3.org/2000/svg"
 width="105.000000pt" height="105.000000pt" viewBox="0 0 105.000000 105.000000"
 preserveAspectRatio="xMidYMid meet">
<metadata>
Created by potrace 1.14, written by Peter Selinger 2001-2017
</metadata>
<g transform="translate(0.000000,105.000000) scale(0.100000,-0.100000)"
fill="#000000" stroke="none">
<path d="M385 1021 c-267 -96 -411 -338 -362 -610 9 -48 55 -152 84 -190 48
-63 139 -141 200 -172 l67 -34 151 0 152 0 79 40 c185 94 292 270 288 475 -1
47 -4 95 -7 108 -42 167 -143 292 -297 365 -60 29 -74 31 -185 34 -95 2 -130
-1 -170 -16z m250 -265 c46 -21 78 -47 113 -90 7 -9 10 -16 7 -16 -3 0 0 -10
7 -22 17 -32 19 -45 19 -110 0 -100 -54 -185 -146 -227 -16 -7 -37 -16 -45
-20 -52 -25 -186 15 -237 71 -59 65 -86 176 -62 261 38 139 211 216 344 153z"/>
<path d="M567 603 c-40 -37 -75 -71 -78 -76 -3 -4 -23 1 -43 12 -52 30 -76 28
-76 -6 0 -57 85 -158 124 -147 28 8 126 112 126 134 0 6 4 10 9 10 10 0 48 89
45 108 -1 6 -2 17 -3 22 -3 24 -37 5 -104 -57z"/>
</g>
</svg>
