<?xml version="1.0" standalone="no"?>
<!DOCTYPE svg PUBLIC "-//W3C//DTD SVG 20010904//EN"
 "http://www.w3.org/TR/2001/REC-SVG-20010904/DTD/svg10.dtd">
<svg version="1.0" xmlns="http://www.w3.org/2000/svg"
 width="624.000000pt" height="624.000000pt" viewBox="0 0 624.000000 624.000000"
 preserveAspectRatio="xMidYMid meet">
<metadata>
Created by potrace 1.14, written by Peter Selinger 2001-2017
</metadata>
<g transform="translate(0.000000,624.000000) scale(0.100000,-0.100000)"
fill="#000000" stroke="none">
<path d="M2878 6205 c-1 -1 -39 -6 -84 -9 -44 -4 -89 -8 -100 -10 -10 -2 -46
-7 -79 -11 -32 -3 -62 -8 -65 -10 -3 -2 -21 -6 -40 -9 -293 -46 -742 -242
-1091 -477 -74 -49 -297 -222 -349 -269 -63 -58 -184 -177 -231 -226 -49 -53
-214 -253 -242 -294 -9 -14 -30 -43 -45 -64 -47 -67 -55 -81 -116 -182 -68
-114 -206 -391 -206 -416 0 -9 -4 -18 -8 -20 -8 -3 -115 -317 -126 -369 -3
-13 -7 -33 -10 -44 -18 -80 -27 -120 -32 -153 -3 -20 -7 -39 -9 -42 -2 -3 -7
-35 -10 -70 -4 -36 -8 -67 -10 -70 -10 -17 -20 -202 -20 -385 0 -185 6 -291
19 -375 3 -14 7 -43 10 -65 12 -84 42 -231 67 -325 11 -41 22 -82 24 -90 17
-65 79 -235 131 -360 87 -206 272 -507 424 -690 25 -30 54 -66 65 -79 93 -114
321 -342 444 -443 16 -14 70 -56 186 -146 8 -7 163 -107 230 -150 38 -24 270
-137 345 -169 198 -82 283 -107 480 -137 99 -16 256 -21 665 -21 406 0 492 3
660 20 221 24 532 143 914 352 101 55 296 176 311 193 3 3 24 18 48 33 40 26
52 35 105 80 12 10 37 31 56 45 39 30 215 204 273 269 54 61 195 249 226 302
14 25 29 48 32 51 7 6 55 83 55 90 1 3 11 21 23 40 29 45 177 347 187 380 4
14 17 48 29 75 24 53 65 168 71 198 2 9 6 21 9 25 4 7 42 141 51 182 2 8 10
44 19 80 17 73 19 85 40 220 26 168 30 231 30 455 0 251 -11 404 -39 535 -3
14 -8 41 -11 60 -21 140 -97 398 -171 580 -42 103 -169 367 -182 380 -4 3 -15
21 -25 40 -20 36 -170 263 -190 287 -6 7 -16 19 -21 26 -6 7 -28 34 -50 62
-149 186 -379 405 -580 552 -55 40 -105 77 -112 83 -7 5 -15 10 -18 10 -3 0
-24 14 -47 30 -22 17 -47 30 -54 30 -7 0 -14 4 -16 9 -4 13 -107 70 -263 146
-127 62 -316 131 -425 155 -30 6 -62 14 -70 17 -8 3 -24 7 -35 9 -11 1 -56 10
-99 18 -44 9 -98 19 -120 21 -23 3 -51 7 -63 9 -12 3 -50 7 -85 11 -35 3 -81
8 -103 11 -43 6 -571 14 -577 9z m507 -1589 c22 -3 65 -11 95 -18 30 -6 60
-12 65 -14 82 -16 320 -111 356 -141 8 -7 19 -13 23 -13 10 0 123 -77 181
-124 63 -51 192 -182 213 -218 9 -16 20 -28 24 -28 4 0 8 -6 8 -14 0 -8 4 -16
8 -18 10 -4 71 -106 110 -183 29 -58 101 -244 107 -275 2 -9 10 -45 19 -81 8
-35 18 -82 21 -104 4 -22 8 -51 10 -65 3 -14 7 -70 10 -124 4 -55 6 -102 7
-105 0 -3 0 -8 -1 -11 -1 -3 -4 -48 -6 -100 -5 -102 -11 -173 -19 -199 -3 -9
-8 -32 -11 -51 -9 -52 -44 -176 -70 -245 -23 -61 -93 -212 -107 -230 -115
-151 -215 -248 -378 -367 -215 -156 -502 -296 -679 -333 -9 -2 -36 -8 -61 -14
-46 -10 -284 -8 -330 3 -14 4 -40 8 -57 11 -52 7 -234 56 -281 76 -23 10 -46
19 -50 20 -77 16 -355 171 -447 249 -110 92 -227 240 -302 380 -62 117 -152
360 -169 457 -3 15 -7 35 -10 45 -6 20 -22 114 -32 188 -15 113 -6 489 12 519
3 4 8 27 11 51 3 23 8 46 11 51 3 5 8 21 10 36 15 83 128 308 198 394 12 14
34 43 50 63 37 47 108 117 166 165 24 20 52 43 61 52 34 33 208 134 310 180
109 49 274 103 351 114 23 4 46 8 49 11 4 2 33 6 65 10 32 3 60 7 63 9 5 6
350 -2 396 -9z"/>
<path d="M3795 3964 c-50 -28 -176 -128 -286 -225 -94 -84 -172 -160 -567
-548 l-123 -121 -42 24 c-23 13 -78 45 -122 71 -301 179 -404 204 -473 115
-23 -30 -41 -83 -43 -125 -1 -40 25 -137 56 -203 14 -29 25 -55 25 -58 0 -10
94 -169 102 -172 4 -2 8 -8 8 -14 0 -32 194 -273 297 -368 85 -79 160 -120
210 -115 91 8 342 241 618 574 11 13 25 29 30 35 25 28 88 109 148 191 37 50
70 95 75 100 4 6 26 39 50 75 23 36 45 70 50 75 4 6 16 26 25 45 10 19 22 42
27 50 17 28 70 151 70 164 0 6 4 16 9 22 15 16 44 137 48 202 6 82 -11 153
-46 186 -35 34 -104 43 -146 20z"/>
</g>
</svg>
